<svg width="36" height="36" viewBox="0 0 36 36" fill="none" xmlns="http://www.w3.org/2000/svg">
<path d="M18 1.125C13.5245 1.125 9.23225 2.9029 6.06757 6.06757C2.9029 9.23225 1.125 13.5245 1.125 18C1.125 22.4755 2.9029 26.7677 6.06757 29.9324C9.23225 33.0971 13.5245 34.875 18 34.875C22.4755 34.875 26.7677 33.0971 29.9324 29.9324C33.0971 26.7677 34.875 22.4755 34.875 18C34.875 13.5245 33.0971 9.23225 29.9324 6.06757C26.7677 2.9029 22.4755 1.125 18 1.125Z" fill="#E74C3C"/>
<path d="M9.40425 6.14629L10.2507 8.74982H12.9906L10.7742 10.3624L11.6187 12.97L9.40425 11.3573L7.18589 12.97L8.03231 10.3624L5.81592 8.74982H8.55578L9.40425 6.14629ZM16.5448 4.78433L16.4887 5.68504L17.3251 6.01796L16.4525 6.24057L16.3924 7.14121L15.911 6.37902L15.0385 6.60163L15.6142 5.90764L15.1327 5.14546L15.9692 5.48043L16.5448 4.78433ZM19.6237 7.70483L19.2125 8.5071L19.8483 9.14694L18.9598 9.00252L18.5466 9.80689L18.408 8.91428L17.5175 8.77182L18.3198 8.36464L18.1835 7.47407L18.8173 8.11187L19.6236 7.70476M18.699 11.3593L18.9738 12.2178L19.8784 12.2194L19.1463 12.7469L19.4251 13.6055L18.697 13.0759L17.9649 13.6054L18.2457 12.7469L17.5176 12.2174L18.4182 12.219L18.699 11.3586M16.5408 14.1113L16.4806 15.0118L17.319 15.3468L16.4446 15.5675L16.3864 16.468L15.9051 15.7058L15.0305 15.9285L15.6062 15.2365L15.1248 14.4723L15.9632 14.8072L16.5409 14.1112" fill="#F1C40F"/>
</svg>
