<svg width="33" height="41" viewBox="0 0 33 41" fill="none" xmlns="http://www.w3.org/2000/svg">
<path fill-rule="evenodd" clip-rule="evenodd" d="M19.6437 1.23551C17.8485 -0.351617 15.1519 -0.351617 13.3565 1.23551C12.9315 1.61132 12.3547 1.76587 11.7987 1.65295C9.45037 1.17608 7.11494 2.52443 6.35377 4.79657C6.17355 5.33456 5.75131 5.7568 5.21332 5.93702C2.94118 6.69819 1.59283 9.03362 2.0697 11.3819C2.18262 11.9379 2.02807 12.5147 1.65226 12.9398C0.0651312 14.7351 0.0651312 17.4318 1.65226 19.227C2.02807 19.6522 2.18262 20.2289 2.0697 20.7849C1.59283 23.1333 2.94118 25.4686 5.21332 26.2298C5.75131 26.41 6.17355 26.8322 6.35377 27.3704C7.11494 29.6424 9.45037 30.9907 11.7987 30.5139C12.3547 30.4009 12.9315 30.5556 13.3565 30.9314C15.1519 32.5184 17.8485 32.5184 19.6437 30.9314C20.0689 30.5556 20.6456 30.4009 21.2018 30.5139C23.55 30.9907 25.8855 29.6424 26.6465 27.3704C26.8269 26.8322 27.2491 26.41 27.787 26.2298C30.0591 25.4686 31.4076 23.1333 30.9306 20.7849C30.8178 20.2289 30.9723 19.6522 31.3481 19.227C32.9353 17.4318 32.9353 14.7351 31.3481 12.9398C30.9723 12.5147 30.8178 11.9379 30.9306 11.3819C31.4076 9.03362 30.0591 6.69819 27.787 5.93702C27.2491 5.7568 26.8269 5.33456 26.6465 4.79657C25.8855 2.52443 23.55 1.17608 21.2018 1.65295C20.6456 1.76587 20.0689 1.61132 19.6437 1.23551ZM22.4345 12.1071C23.0081 12.6807 23.0081 13.6107 22.4345 14.1843L15.5804 21.0385C15.305 21.314 14.9314 21.4687 14.5419 21.4687C14.1523 21.4687 13.7787 21.314 13.5034 21.0385L10.5658 18.101C9.99218 17.5274 9.9922 16.5974 10.5658 16.0238C11.1394 15.4502 12.0693 15.4502 12.6429 16.0238L14.5419 17.9228L20.3575 12.1071C20.9309 11.5336 21.8609 11.5335 22.4345 12.1071Z" fill="#0082FF"/>
<path d="M21.0244 32.9689C20.1843 33.6492 19.2282 34.1127 18.2299 34.3593C18.5773 35.1906 18.9511 36.0107 19.351 36.8186C19.3908 36.899 19.4309 36.9793 19.5067 37.1311L20.2953 38.7081C20.4105 38.9386 20.5401 39.1985 20.6709 39.4063C20.8035 39.617 21.0798 40.0175 21.5876 40.2429C22.0688 40.4565 22.6134 40.4773 23.1096 40.3013C23.6331 40.1156 23.9394 39.7373 24.0876 39.5375C24.2341 39.3403 24.3833 39.0912 24.5159 38.8703L25.2 37.73C25.5487 37.1485 25.751 36.8154 25.9253 36.5863C26.0039 36.4831 26.0528 36.4337 26.0785 36.4112C26.0902 36.4006 26.0983 36.3954 26.0983 36.3954L26.1006 36.394L26.1032 36.3932C26.1032 36.3932 26.1124 36.3907 26.128 36.3883C26.1617 36.3836 26.231 36.3781 26.3605 36.3854C26.648 36.4012 27.0328 36.4633 27.7015 36.5747L30.1669 36.9858C31.6121 37.2267 32.7944 35.8429 32.331 34.4529L32.1709 33.9719C31.4939 31.9413 30.6138 29.9877 29.5455 28.1402C29.3248 28.2524 29.0965 28.354 28.8611 28.4445C27.6457 31.6108 24.3741 33.4994 21.0244 32.9689ZM4.13905 28.4445C3.90368 28.354 3.67538 28.2524 3.4546 28.1402C2.38638 29.9877 1.50619 31.9413 0.829314 33.9719L0.668985 34.4529C0.205643 35.8429 1.38793 37.2267 2.83324 36.9858L5.2986 36.5747C5.96741 36.4633 6.35221 36.4012 6.63969 36.3854C6.76913 36.3781 6.83844 36.3836 6.87214 36.3883C6.88781 36.3907 6.89703 36.3932 6.89703 36.3932L6.89956 36.394L6.90187 36.3954C6.90187 36.3954 6.90982 36.4006 6.92167 36.4112C6.94719 36.4337 6.99618 36.4831 7.07467 36.5863C7.24897 36.8154 7.45126 37.1485 7.80012 37.73L8.48424 38.8703C8.61674 39.0912 8.76609 39.3403 8.91241 39.5375C9.06072 39.7373 9.367 40.1156 9.89054 40.3013C10.3866 40.4773 10.9313 40.4565 11.4124 40.2429C11.9202 40.0175 12.1966 39.617 12.3291 39.4063C12.4599 39.1985 12.5897 38.9386 12.7048 38.7081L13.4934 37.1311C13.5692 36.9793 13.6094 36.899 13.6491 36.8186C14.0488 36.0107 14.4227 35.1906 14.7703 34.3593C13.7719 34.1127 12.8159 33.6492 11.9756 32.9689C8.62589 33.4994 5.35447 31.6108 4.13905 28.4445Z" fill="#0082FF"/>
</svg>
