<svg width="36" height="36" viewBox="0 0 36 36" fill="none" xmlns="http://www.w3.org/2000/svg">
<path d="M12.7649 3.00001H23.235C23.5838 2.99992 23.8511 2.99986 24.0848 3.02272C25.7465 3.18528 27.1067 4.18437 27.6834 5.53017H8.31644C8.8932 4.18437 10.2533 3.18528 11.9151 3.02272C12.1488 2.99986 12.4161 2.99992 12.7649 3.00001ZM9.4658 7.08468C7.37985 7.08468 5.66946 8.3443 5.09867 10.0154C5.08677 10.0502 5.07536 10.0852 5.06445 10.1204C5.66168 9.93954 6.28323 9.82138 6.91242 9.74073C8.53299 9.53296 10.581 9.53307 12.96 9.5332H13.1377H23.2982C25.6772 9.53307 27.7253 9.53296 29.3459 9.74073C29.975 9.82138 30.5966 9.93954 31.1937 10.1204C31.1829 10.0852 31.1715 10.0502 31.1595 10.0154C30.5888 8.3443 28.8783 7.08468 26.7924 7.08468H9.4658Z" fill="#0082FF"/>
<path fill-rule="evenodd" clip-rule="evenodd" d="M13.0086 11.313H22.9914C28.0536 11.313 30.5847 11.313 32.0065 12.7933C33.4282 14.2735 33.0938 16.5604 32.4248 21.1344L31.7903 25.4716C31.2656 29.0586 31.0033 30.852 29.6576 31.926C28.3118 33 26.3268 33 22.3569 33H13.643C9.67322 33 7.6883 33 6.34251 31.926C4.99673 30.852 4.73439 29.0586 4.20972 25.4716L3.57527 21.1344C2.90622 16.5604 2.57171 14.2735 3.99348 12.7933C5.41526 11.313 7.94637 11.313 13.0086 11.313ZM12 27.0001C12 26.3788 12.5597 25.8751 13.25 25.8751H22.75C23.4404 25.8751 24 26.3788 24 27.0001C24 27.6216 23.4404 28.1253 22.75 28.1253H13.25C12.5597 28.1253 12 27.6216 12 27.0001Z" fill="#0082FF"/>
</svg>
