<svg width="125" height="24" viewBox="0 0 125 24" fill="none" xmlns="http://www.w3.org/2000/svg">
<path d="M16.424 23L15.464 19.768H8.008L7.048 23H0.84L8.232 0.599998H15.208L22.6 23H16.424ZM9.48 14.84H13.992L11.72 7.224L9.48 14.84ZM29.3168 9.976C29.6154 8.93067 30.2128 8.12 31.1088 7.544C32.0048 6.968 33.0074 6.68 34.1168 6.68V12.568C32.9008 12.376 31.7914 12.6 30.7888 13.24C29.8074 13.88 29.3168 14.9253 29.3168 16.376V23H24.0048V7H29.3168V9.976ZM44.1618 23.416C41.7511 23.416 39.7351 22.6053 38.1138 20.984C36.5138 19.3627 35.7138 17.368 35.7138 15C35.7138 12.6107 36.5138 10.616 38.1138 9.016C39.7351 7.39467 41.7511 6.584 44.1618 6.584C45.7191 6.584 47.1378 6.95733 48.4178 7.704C49.6978 8.45067 50.6578 9.45333 51.2978 10.712L48.3218 12.44C47.9591 11.672 47.4044 11.0747 46.6578 10.648C45.9324 10.2 45.0898 9.976 44.1298 9.976C42.7218 9.976 41.5378 10.456 40.5778 11.416C39.6391 12.376 39.1698 13.5707 39.1698 15C39.1698 16.4293 39.6391 17.624 40.5778 18.584C41.5378 19.544 42.7218 20.024 44.1298 20.024C45.0684 20.024 45.9111 19.8 46.6578 19.352C47.4258 18.904 48.0018 18.3067 48.3858 17.56L51.3618 19.256C50.6791 20.536 49.6978 21.5493 48.4178 22.296C47.1378 23.0427 45.7191 23.416 44.1618 23.416ZM62.7878 10.328H58.8198V18.008C58.8198 18.6693 58.9691 19.1493 59.2678 19.448C59.5664 19.7253 60.0038 19.8853 60.5798 19.928C61.1771 19.9493 61.9131 19.9387 62.7878 19.896V23C60.1424 23.32 58.2438 23.096 57.0918 22.328C55.9398 21.5387 55.3638 20.0987 55.3638 18.008V10.328H52.4198V7H55.3638V3.544L58.8198 2.52V7H62.7878V10.328ZM68.4465 3.16C68.1478 3.45867 67.7852 3.608 67.3585 3.608C66.9318 3.608 66.5692 3.45867 66.2705 3.16C65.9718 2.86133 65.8225 2.49867 65.8225 2.072C65.8225 1.64533 65.9718 1.28267 66.2705 0.983999C66.5692 0.685333 66.9318 0.535999 67.3585 0.535999C67.7852 0.535999 68.1478 0.685333 68.4465 0.983999C68.7452 1.28267 68.8945 1.64533 68.8945 2.072C68.8945 2.49867 68.7452 2.86133 68.4465 3.16ZM66.3025 23V7H68.4145V23H66.3025ZM80.3523 23.384C77.9416 23.384 75.9363 22.584 74.3363 20.984C72.7363 19.3627 71.9363 17.368 71.9363 15C71.9363 12.632 72.7363 10.648 74.3363 9.048C75.9363 7.42667 77.9416 6.616 80.3523 6.616C81.9309 6.616 83.3496 7 84.6083 7.768C85.8669 8.51467 86.7843 9.528 87.3603 10.808L85.6323 11.8C85.2056 10.84 84.5123 10.0827 83.5523 9.528C82.6136 8.952 81.5469 8.664 80.3523 8.664C78.5816 8.664 77.0883 9.28267 75.8723 10.52C74.6563 11.736 74.0483 13.2293 74.0483 15C74.0483 16.7707 74.6563 18.2747 75.8723 19.512C77.0883 20.728 78.5816 21.336 80.3523 21.336C81.5469 21.336 82.6136 21.0587 83.5523 20.504C84.4909 19.928 85.2269 19.16 85.7603 18.2L87.5203 19.224C86.8589 20.504 85.8883 21.5173 84.6083 22.264C83.3283 23.0107 81.9096 23.384 80.3523 23.384ZM106.553 23L104.249 17.08H92.5045L90.2005 23H88.9525L97.7205 0.599998H99.0005L107.801 23H106.553ZM92.9205 15.992H103.833L98.3605 1.976L92.9205 15.992ZM112.374 2.36C112.182 2.552 111.947 2.648 111.67 2.648C111.392 2.648 111.158 2.552 110.966 2.36C110.774 2.14667 110.678 1.912 110.678 1.656C110.678 1.37867 110.774 1.144 110.966 0.952C111.158 0.738665 111.392 0.631998 111.67 0.631998C111.947 0.631998 112.182 0.738665 112.374 0.952C112.566 1.144 112.661 1.37867 112.661 1.656C112.661 1.912 112.566 2.14667 112.374 2.36ZM111.094 23V7H112.246V23H111.094ZM118.714 10.616C119.184 9.31467 119.93 8.35467 120.954 7.736C121.978 7.096 123.109 6.776 124.346 6.776V7.864C122.768 7.864 121.434 8.408 120.346 9.496C119.258 10.5627 118.714 12.0987 118.714 14.104V23H117.562V7H118.714V10.616Z" fill="black"/>
</svg>
