<svg width="11" height="18" viewBox="0 0 11 18" fill="none" xmlns="http://www.w3.org/2000/svg">
<path d="M5.4725 17.9C3.94457 17.9 2.60255 16.7099 1.63449 15.2287C0.668042 13.75 0.1 12.0194 0.1 11.0015C0.1 9.92048 0.692138 8.93201 1.66428 8.21026C2.63636 7.48855 3.9831 7.0386 5.4725 7.0386C6.96189 7.0386 8.30863 7.48855 9.28072 8.21026C10.2529 8.93201 10.845 9.92048 10.845 11.0015C10.845 12.0194 10.277 13.75 9.31051 15.2287C8.34244 16.7099 7.00043 17.9 5.4725 17.9ZM9.77053 11.0015C9.77053 10.2006 9.26183 9.47635 8.48025 8.95718C7.69722 8.43705 6.62805 8.11307 5.4725 8.11307C4.31695 8.11307 3.24778 8.43705 2.46474 8.95718C1.68317 9.47635 1.17447 10.2006 1.17447 11.0015C1.17447 11.4191 1.3035 11.9898 1.52668 12.6062C1.75055 13.2245 2.07195 13.8963 2.46296 14.5178C2.85369 15.1389 3.3162 15.7133 3.82366 16.1335C4.33057 16.5533 4.89016 16.8255 5.4725 16.8255C6.05483 16.8255 6.61442 16.5533 7.12133 16.1336C7.6288 15.7134 8.09131 15.139 8.48203 14.5179C8.87305 13.8964 9.19444 13.2246 9.41832 12.6063C9.64149 11.9899 9.77053 11.4191 9.77053 11.0015Z" fill="white" stroke="white" stroke-width="0.2"/>
<path d="M3.77945 2.86755L3.77945 2.86764C3.77986 3.31653 3.95836 3.74691 4.27577 4.06431C4.59318 4.38172 5.02356 4.56022 5.47244 4.56064H5.47253C5.80739 4.56064 6.13473 4.46134 6.41316 4.2753C6.69159 4.08926 6.90859 3.82484 7.03674 3.51547C7.16488 3.2061 7.19841 2.86567 7.13308 2.53725C7.06776 2.20882 6.90651 1.90714 6.66972 1.67036C6.43294 1.43358 6.13126 1.27233 5.80284 1.207C5.47441 1.14167 5.13399 1.1752 4.82462 1.30335C4.51525 1.43149 4.25082 1.6485 4.06478 1.92692C3.87875 2.20535 3.77945 2.53269 3.77945 2.86755ZM7.77367 1.32998C8.07775 1.78507 8.24006 2.32011 8.24008 2.86744C8.23927 3.60122 7.94742 4.30471 7.42856 4.82357C6.90969 5.34243 6.2062 5.63429 5.47242 5.6351C4.92509 5.63508 4.39005 5.47277 3.93496 5.16869C3.47984 4.86458 3.12512 4.43235 2.91565 3.92665C2.70618 3.42094 2.65137 2.86448 2.75816 2.32763C2.86495 1.79078 3.12853 1.29765 3.51558 0.910598C3.90263 0.523549 4.39576 0.259966 4.93261 0.153179C5.46946 0.0463925 6.02592 0.101199 6.53163 0.310668C7.03733 0.520138 7.46956 0.874862 7.77367 1.32998Z" fill="white" stroke="white" stroke-width="0.2"/>
</svg>
