<svg width="16" height="18" viewBox="0 0 16 18" fill="none" xmlns="http://www.w3.org/2000/svg">
<g clip-path="url(#clip0_4003_1032)">
<path d="M13.5624 3.50667H11.9322C11.8509 2.55037 11.4111 1.65926 10.6998 1.00983C9.98857 0.360401 9.0578 0 8.0918 0C7.1258 0 6.19503 0.360401 5.4838 1.00983C4.77257 1.65926 4.33276 2.55037 4.25145 3.50667H2.62121C2.01668 3.50667 1.4369 3.74526 1.00943 4.16995C0.581949 4.59464 0.341797 5.17065 0.341797 5.77125V15.7354C0.341797 16.336 0.581949 16.912 1.00943 17.3367C1.4369 17.7614 2.01668 18 2.62121 18H13.5624C14.167 18 14.7467 17.7614 15.1742 17.3367C15.6017 16.912 15.8418 16.336 15.8418 15.7354V5.77125C15.8418 5.17065 15.6017 4.59464 15.1742 4.16995C14.7467 3.74526 14.167 3.50667 13.5624 3.50667ZM8.0918 0.902402C8.81633 0.904633 9.51481 1.17107 10.0547 1.65115C10.5946 2.13122 10.9382 2.7915 11.0204 3.50667H5.16321C5.24543 2.7915 5.58908 2.13122 6.12893 1.65115C6.66879 1.17107 7.36727 0.904633 8.0918 0.902402ZM14.9301 15.7354C14.9301 16.0958 14.786 16.4414 14.5295 16.6962C14.273 16.951 13.9252 17.0942 13.5624 17.0942H2.62121C2.25849 17.0942 1.91062 16.951 1.65414 16.6962C1.39766 16.4414 1.25357 16.0958 1.25357 15.7354V5.77125C1.25357 5.41089 1.39766 5.06529 1.65414 4.81047C1.91062 4.55566 2.25849 4.4125 2.62121 4.4125H13.5624C13.9252 4.4125 14.273 4.55566 14.5295 4.81047C14.786 5.06529 14.9301 5.41089 14.9301 5.77125V15.7354Z" fill="black"/>
</g>
<defs>
<clipPath id="clip0_4003_1032">
<rect width="16" height="18" fill="white"/>
</clipPath>
</defs>
</svg>
