<svg width="16" height="18" viewBox="0 0 16 18" fill="none" xmlns="http://www.w3.org/2000/svg">
    <rect x="1" y="4" width="14" height="14" rx="2" fill="#FCBC10"/>
    <path d="M13.5626 3.50667H11.9324C11.8511 2.55037 11.4113 1.65926 10.7 1.00983C9.98881 0.360401 9.05804 0 8.09204 0C7.12604 0 6.19527 0.360401 5.48404 1.00983C4.77281 1.65926 4.333 2.55037 4.25169 3.50667H2.62145C2.01692 3.50667 1.43714 3.74526 1.00967 4.16995C0.582193 4.59464 0.342041 5.17065 0.342041 5.77125L0.342041 15.7354C0.342041 16.336 0.582193 16.912 1.00967 17.3367C1.43714 17.7614 2.01692 18 2.62145 18H13.5626C14.1672 18 14.7469 17.7614 15.1744 17.3367C15.6019 16.912 15.842 16.336 15.842 15.7354V5.77125C15.842 5.17065 15.6019 4.59464 15.1744 4.16995C14.7469 3.74526 14.1672 3.50667 13.5626 3.50667V3.50667ZM8.09204 0.902402C8.81657 0.904633 9.51505 1.17107 10.0549 1.65115C10.5948 2.13122 10.9384 2.7915 11.0206 3.50667H5.16345C5.24567 2.7915 5.58932 2.13122 6.12917 1.65115C6.66903 1.17107 7.36751 0.904633 8.09204 0.902402ZM14.9303 15.7354C14.9303 16.0958 14.7862 16.4414 14.5297 16.6962C14.2732 16.951 13.9254 17.0942 13.5626 17.0942H2.62145C2.25873 17.0942 1.91086 16.951 1.65438 16.6962C1.3979 16.4414 1.25381 16.0958 1.25381 15.7354V5.77125C1.25381 5.41089 1.3979 5.06529 1.65438 4.81047C1.91086 4.55566 2.25873 4.4125 2.62145 4.4125H13.5626C13.9254 4.4125 14.2732 4.55566 14.5297 4.81047C14.7862 5.06529 14.9303 5.41089 14.9303 5.77125V15.7354Z" fill="white"/>
</svg>
