<svg width="27" height="18" viewBox="0 0 27 18" fill="none" xmlns="http://www.w3.org/2000/svg">
    <path d="M11.1634 2.49624C10.7087 2.92981 10.3006 3.40978 9.94584 3.9283C9.8612 4.0552 9.82997 4.21035 9.85894 4.36011C9.8879 4.50987 9.97472 4.64219 10.1006 4.72838C10.2264 4.81457 10.3812 4.84769 10.5313 4.82056C10.6814 4.79343 10.8148 4.70824 10.9025 4.58346C11.2114 4.13182 11.567 3.714 11.9635 3.33693C12.0187 3.28439 12.063 3.2215 12.0939 3.15184C12.1248 3.08218 12.1416 3.00711 12.1435 2.93093C12.1454 2.85475 12.1323 2.77895 12.1049 2.70785C12.0775 2.63674 12.0363 2.57174 11.9838 2.51654C11.9312 2.46134 11.8683 2.41702 11.7987 2.38613C11.729 2.35524 11.654 2.33837 11.5778 2.33648C11.5016 2.3346 11.4258 2.34774 11.3547 2.37515C11.2836 2.40256 11.2186 2.44371 11.1634 2.49624Z" fill="white"/>
    <path d="M8.6182 11.1117C8.64881 11.2414 8.72317 11.3566 8.82877 11.4379C8.93437 11.5193 9.06476 11.5617 9.19799 11.5581C9.2442 11.5637 9.29092 11.5637 9.33713 11.5581C9.41148 11.5405 9.4816 11.5082 9.54345 11.4634C9.6053 11.4185 9.65767 11.3618 9.69755 11.2966C9.73742 11.2314 9.76401 11.159 9.77579 11.0835C9.78756 11.0079 9.7843 10.9309 9.76617 10.8566C9.6381 10.3245 9.5662 9.78036 9.55165 9.23322C9.55165 9.07946 9.49057 8.93199 9.38184 8.82326C9.27311 8.71453 9.12564 8.65344 8.97187 8.65344C8.8181 8.65344 8.67063 8.71453 8.5619 8.82326C8.45317 8.93199 8.39209 9.07946 8.39209 9.23322C8.40106 9.86561 8.47686 10.4953 8.6182 11.1117Z" fill="white"/>
    <path d="M8.98339 8.05625H9.08775C9.22503 8.05849 9.35866 8.01193 9.46483 7.92487C9.571 7.83781 9.64283 7.71589 9.66753 7.58083C9.76735 7.04433 9.9228 6.51969 10.1314 6.01542C10.1607 5.94499 10.1758 5.86948 10.176 5.79319C10.1761 5.71691 10.1612 5.64135 10.1321 5.57082C10.103 5.50029 10.0604 5.43618 10.0065 5.38215C9.95266 5.32811 9.8887 5.28522 9.81827 5.2559C9.74784 5.22659 9.67233 5.21143 9.59605 5.2113C9.51976 5.21117 9.4442 5.22607 9.37367 5.25514C9.30314 5.28422 9.23903 5.32689 9.185 5.38074C9.13097 5.43459 9.08807 5.49856 9.05876 5.56898C8.81886 6.14788 8.64009 6.75026 8.52536 7.36631C8.50933 7.44174 8.50851 7.51961 8.52295 7.59537C8.53739 7.67112 8.56679 7.74324 8.60945 7.80749C8.6521 7.87174 8.70714 7.92683 8.77135 7.96955C8.83556 8.01226 8.90764 8.04174 8.98339 8.05625Z" fill="white"/>
    <path d="M24.4171 5.63859C24.6536 6.13219 24.8382 6.64904 24.9679 7.18081C25.0115 7.32174 25.1071 7.44076 25.2354 7.51362C25.3637 7.58648 25.5149 7.6077 25.6583 7.57297C25.8016 7.53823 25.9264 7.45015 26.0071 7.32666C26.0878 7.20318 26.1184 7.05357 26.0926 6.90831C25.9419 6.30847 25.7302 5.72565 25.4607 5.16897C25.3882 5.04154 25.2701 4.94631 25.1303 4.90243C24.9904 4.85855 24.8391 4.8693 24.7068 4.9325C24.5745 4.9957 24.4711 5.10666 24.4173 5.24305C24.3636 5.37944 24.3635 5.53113 24.4171 5.66758V5.63859Z" fill="white"/>
    <path d="M23.5591 4.24135C23.6056 4.30188 23.6635 4.35266 23.7295 4.39081C23.7956 4.42896 23.8686 4.45372 23.9442 4.46368C24.0198 4.47364 24.0967 4.46861 24.1704 4.44886C24.2441 4.42912 24.3132 4.39505 24.3737 4.34861C24.4342 4.30216 24.485 4.24425 24.5232 4.17818C24.5613 4.1121 24.5861 4.03917 24.596 3.96352C24.606 3.88788 24.601 3.81102 24.5812 3.73732C24.5615 3.66363 24.5274 3.59454 24.481 3.53401C24.0973 3.03536 23.662 2.57866 23.1823 2.17153C23.0654 2.07158 22.9136 2.02215 22.7603 2.03411C22.607 2.04607 22.4647 2.11844 22.3648 2.2353C22.2648 2.35217 22.2154 2.50395 22.2273 2.65726C22.2393 2.81057 22.3117 2.95284 22.4285 3.05279C22.8461 3.40813 23.2251 3.80652 23.5591 4.24135Z" fill="white"/>
    <path d="M16.2481 1.26125H16.3235C16.8663 1.1792 17.4162 1.15394 17.9642 1.18588C18.0404 1.19159 18.1169 1.18225 18.1894 1.15839C18.2619 1.13453 18.3291 1.09661 18.3869 1.04681C18.4448 0.997013 18.4923 0.936302 18.5267 0.868144C18.5611 0.799987 18.5818 0.72572 18.5875 0.649582C18.5932 0.573444 18.5839 0.496927 18.56 0.424399C18.5362 0.351872 18.4982 0.284754 18.4484 0.226878C18.3986 0.169003 18.3379 0.121503 18.2698 0.0870906C18.2016 0.0526782 18.1273 0.0320273 18.0512 0.0263169C17.4249 -0.0215631 16.7954 -0.00407525 16.1727 0.0784972C16.0189 0.0884921 15.8754 0.159162 15.7738 0.274959C15.6721 0.390757 15.6206 0.542197 15.6306 0.695964C15.6406 0.849732 15.7113 0.993231 15.8271 1.09489C15.9429 1.19656 16.0943 1.24805 16.2481 1.23806V1.26125Z" fill="white"/>
    <path d="M12.9606 2.42667C13.0667 2.42769 13.1709 2.39961 13.2621 2.3455C13.7309 2.05879 14.2284 1.82173 14.7464 1.63817C14.82 1.61387 14.888 1.57506 14.9463 1.52403C15.0047 1.473 15.0522 1.41079 15.0861 1.34107C15.12 1.27136 15.1395 1.19555 15.1436 1.11814C15.1477 1.04073 15.1362 0.963286 15.1099 0.890389C15.0835 0.817493 15.0428 0.750624 14.9901 0.693738C14.9375 0.636852 14.8739 0.591103 14.8033 0.559198C14.7326 0.527292 14.6563 0.509878 14.5788 0.507985C14.5013 0.506092 14.4242 0.519759 14.3521 0.548177C13.7611 0.759124 13.1937 1.03116 12.6591 1.35987C12.5523 1.42611 12.4698 1.5253 12.4242 1.6425C12.3786 1.75969 12.3724 1.88853 12.4064 2.00958C12.4404 2.13064 12.5129 2.23735 12.6129 2.31363C12.7128 2.38991 12.8349 2.43162 12.9606 2.43247V2.42667Z" fill="white"/>
    <path d="M10.2239 14.4861C10.3195 14.6008 10.4557 14.6742 10.6041 14.691C10.7525 14.7078 10.9016 14.6667 11.0205 14.5763C11.1393 14.4859 11.2187 14.353 11.242 14.2055C11.2654 14.0581 11.2309 13.9072 11.1458 13.7845C10.8141 13.3495 10.5285 12.8812 10.2935 12.3872C10.2644 12.3131 10.2203 12.2458 10.1641 12.1895C10.1078 12.1331 10.0405 12.089 9.96644 12.0598C9.89236 12.0306 9.81306 12.017 9.73348 12.0198C9.6539 12.0226 9.57576 12.0417 9.50391 12.0761C9.43206 12.1104 9.36806 12.1591 9.31588 12.2193C9.26371 12.2794 9.22448 12.3497 9.20065 12.4257C9.17682 12.5016 9.16889 12.5817 9.17736 12.6609C9.18584 12.7401 9.21053 12.8166 9.2499 12.8859C9.5185 13.4514 9.84491 13.9877 10.2239 14.4861Z" fill="white"/>
    <path d="M22.7415 14.7006C22.3419 15.0717 21.9047 15.4001 21.437 15.6804C21.3301 15.7466 21.2476 15.8458 21.202 15.963C21.1565 16.0802 21.1502 16.2091 21.1842 16.3301C21.2183 16.4512 21.2907 16.5579 21.3907 16.6342C21.4907 16.7104 21.6127 16.7521 21.7385 16.753C21.845 16.7523 21.9494 16.7222 22.04 16.666C22.5759 16.3328 23.0754 15.9442 23.53 15.5065C23.629 15.3984 23.6835 15.2569 23.6824 15.1103C23.6813 14.9638 23.6247 14.8231 23.524 14.7165C23.4234 14.61 23.2861 14.5455 23.1398 14.5361C22.9936 14.5267 22.8492 14.573 22.7357 14.6658L22.7415 14.7006Z" fill="white"/>
    <path d="M24.6025 12.0162C24.3926 12.5216 24.1303 13.0035 23.8198 13.4541C23.7757 13.5169 23.7445 13.5878 23.7279 13.6627C23.7114 13.7377 23.71 13.8151 23.7236 13.8906C23.7372 13.9661 23.7657 14.0382 23.8074 14.1026C23.8491 14.167 23.9032 14.2225 23.9665 14.2659C24.0298 14.3092 24.1011 14.3396 24.1763 14.3552C24.2514 14.3708 24.3289 14.3713 24.4042 14.3568C24.4796 14.3422 24.5513 14.3128 24.6152 14.2703C24.6791 14.2278 24.7339 14.1731 24.7765 14.1092C25.1354 13.5878 25.4385 13.0301 25.6809 12.4453L25.1475 12.2134L24.6025 12.0162Z" fill="white"/>
    <path d="M26.342 8.76358C26.3397 8.68744 26.3225 8.6125 26.2912 8.54303C26.26 8.47356 26.2153 8.41093 26.1599 8.3587C26.1044 8.30648 26.0392 8.26569 25.968 8.23867C25.8968 8.21164 25.821 8.1989 25.7448 8.20119C25.6687 8.20347 25.5937 8.22073 25.5243 8.25198C25.4548 8.28322 25.3922 8.32785 25.3399 8.3833C25.2877 8.43875 25.2469 8.50395 25.2199 8.57517C25.1929 8.64638 25.1801 8.72223 25.1824 8.79836C25.1824 8.87373 25.1824 8.94331 25.1824 9.01868C25.1828 9.4912 25.1402 9.96278 25.0549 10.4275C25.0406 10.5026 25.0413 10.5796 25.0569 10.6544C25.0725 10.7291 25.1028 10.8001 25.1459 10.8631C25.189 10.9261 25.2441 10.98 25.3081 11.0217C25.372 11.0633 25.4436 11.092 25.5187 11.1059H25.6231C25.7604 11.1081 25.894 11.0616 26.0001 10.9745C26.1063 10.8875 26.1782 10.7655 26.2028 10.6305C26.298 10.0985 26.3446 9.55905 26.342 9.01868C26.342 8.93171 26.342 8.85054 26.342 8.76358Z" fill="white"/>
    <path d="M21.8661 1.89906C21.938 1.76367 21.9533 1.60532 21.9088 1.45864C21.8642 1.31196 21.7634 1.18889 21.6284 1.11635C21.3588 0.971126 21.0821 0.839543 20.7993 0.722101C20.5055 0.598633 20.2055 0.490266 19.9006 0.397424C19.753 0.3536 19.594 0.370212 19.4587 0.443604C19.3233 0.516997 19.2226 0.641159 19.1788 0.788776C19.135 0.936393 19.1516 1.09537 19.225 1.23074C19.2984 1.36611 19.4225 1.46678 19.5701 1.5106C19.8372 1.582 20.1004 1.66715 20.3587 1.76571C20.608 1.87007 20.8515 1.98602 21.0834 2.10778C21.1671 2.15298 21.2607 2.17688 21.3559 2.17735C21.4579 2.17997 21.5588 2.15561 21.6484 2.10675C21.738 2.05788 21.8131 1.98624 21.8661 1.89906Z" fill="white"/>
    <path d="M13.6159 15.895C13.1344 15.6338 12.6816 15.3229 12.265 14.9673C12.1482 14.8674 11.9964 14.8179 11.8431 14.8299C11.6898 14.8418 11.5475 14.9142 11.4475 15.0311C11.3476 15.1479 11.2981 15.2997 11.3101 15.453C11.3221 15.6063 11.3944 15.7486 11.5113 15.8486C11.9884 16.2558 12.5073 16.6115 13.0593 16.9096C13.1946 16.9865 13.3549 17.0064 13.505 16.9651C13.655 16.9238 13.7825 16.8246 13.8594 16.6893C13.9363 16.5539 13.9563 16.3936 13.915 16.2436C13.8736 16.0935 13.7744 15.966 13.6391 15.8892L13.6159 15.895Z" fill="white"/>
    <path d="M19.9644 16.3936C19.4496 16.576 18.9172 16.7042 18.3758 16.7762C18.2997 16.7812 18.2253 16.8011 18.1568 16.8348C18.0884 16.8685 18.0272 16.9154 17.9769 16.9727C17.9266 17.03 17.888 17.0967 17.8635 17.169C17.8389 17.2412 17.8288 17.3176 17.8337 17.3937C17.8387 17.4699 17.8586 17.5443 17.8923 17.6127C17.926 17.6812 17.9729 17.7423 18.0302 17.7926C18.0875 17.843 18.1542 17.8815 18.2265 17.9061C18.2987 17.9307 18.3751 17.9408 18.4512 17.9358H18.5266C19.1491 17.8531 19.7612 17.7054 20.3529 17.4952C20.499 17.4437 20.6186 17.3362 20.6855 17.1965C20.7523 17.0568 20.761 16.8962 20.7095 16.7502C20.6579 16.6041 20.5505 16.4844 20.4108 16.4176C20.2711 16.3507 20.1105 16.3421 19.9644 16.3936Z" fill="white"/>
    <path d="M16.7349 16.84C16.1905 16.796 15.6522 16.695 15.1289 16.5385C14.9813 16.4947 14.8223 16.5113 14.6869 16.5847C14.5516 16.6581 14.4509 16.7823 14.4071 16.9299C14.3632 17.0775 14.3799 17.2365 14.4532 17.3719C14.5266 17.5072 14.6508 17.6079 14.7984 17.6517C15.401 17.8322 16.0209 17.9488 16.6479 17.9996H16.6943C16.8481 18.0057 16.998 17.9506 17.1111 17.8462C17.2241 17.7418 17.2911 17.5968 17.2973 17.443C17.3034 17.2892 17.2482 17.1393 17.1439 17.0262C17.0395 16.9132 16.8945 16.8462 16.7407 16.84H16.7349Z" fill="white"/>
    <path d="M11.1691 16.724C10.1009 16.9099 9.00569 16.8719 7.95294 16.6123C6.9002 16.3527 5.91287 15.8772 5.05356 15.216C4.19424 14.5547 3.48169 13.7221 2.96107 12.771C2.44045 11.8199 2.12313 10.771 2.02921 9.69079C1.9353 8.61059 2.06685 7.52265 2.41551 6.49596C2.76418 5.46927 3.32236 4.52622 4.05467 3.7266C4.78697 2.92698 5.67743 2.28823 6.66958 1.85086C7.66173 1.41348 8.73394 1.18702 9.81822 1.18582C10.271 1.18559 10.723 1.22438 11.1691 1.30178C11.3229 1.32792 11.4807 1.29191 11.6079 1.20166C11.7352 1.11141 11.8213 0.974329 11.8475 0.820562C11.8736 0.666794 11.8376 0.50894 11.7473 0.381726C11.6571 0.254512 11.52 0.168358 11.3662 0.142218C10.1461 -0.0550888 8.89834 0.00142462 7.70102 0.308225C6.5037 0.615026 5.38254 1.16552 4.40763 1.92528C3.43272 2.68505 2.62501 3.63776 2.03501 4.72386C1.44501 5.80995 1.08539 7.00608 0.978647 8.23746C0.8719 9.46885 1.02032 10.709 1.41462 11.8804C1.80892 13.0519 2.44063 14.1294 3.27026 15.0456C4.09988 15.9618 5.10959 16.697 6.23625 17.2052C7.36292 17.7135 8.58231 17.9839 9.81822 17.9995C10.3371 17.9994 10.855 17.9548 11.3662 17.8661C11.4424 17.8532 11.5152 17.8254 11.5806 17.7843C11.646 17.7432 11.7026 17.6896 11.7473 17.6266C11.792 17.5636 11.8239 17.4925 11.841 17.4172C11.8582 17.3419 11.8604 17.2639 11.8475 17.1878C11.8345 17.1116 11.8067 17.0388 11.7656 16.9734C11.7245 16.908 11.6709 16.8514 11.6079 16.8067C11.545 16.762 11.4738 16.7302 11.3985 16.713C11.3232 16.6958 11.2452 16.6936 11.1691 16.7066V16.724Z" fill="white"/>
    <path d="M15.0885 16.295C16.1271 15.5431 16.9928 14.5777 17.6274 13.4636C18.262 12.3495 18.6509 11.1124 18.7678 9.83558C18.8848 8.55874 18.7272 7.27164 18.3056 6.06075C17.884 4.84986 17.2081 3.7432 16.3235 2.81512C16.2709 2.75992 16.208 2.71561 16.1384 2.68471C16.0687 2.65382 15.9936 2.63695 15.9175 2.63507C15.7636 2.63126 15.6145 2.68873 15.5031 2.79483C15.3916 2.90093 15.3268 3.04697 15.323 3.20082C15.3192 3.35467 15.3767 3.50374 15.4828 3.61522C16.2532 4.42374 16.8416 5.38775 17.2086 6.44252C17.5756 7.49728 17.7126 8.61836 17.6104 9.73046C17.5083 10.8426 17.1693 11.9199 16.6164 12.8902C16.0634 13.8604 15.3092 14.7011 14.4044 15.3558C14.3392 15.3989 14.2834 15.4547 14.2404 15.52C14.1974 15.5852 14.168 15.6584 14.1539 15.7353C14.1399 15.8122 14.1416 15.8911 14.1588 15.9673C14.1761 16.0435 14.2085 16.1154 14.2543 16.1788C14.3 16.2421 14.3581 16.2955 14.425 16.3359C14.492 16.3762 14.5663 16.4026 14.6437 16.4135C14.7211 16.4243 14.7999 16.4194 14.8753 16.3991C14.9508 16.3787 15.0213 16.3433 15.0827 16.295H15.0885Z" fill="white"/>
    <circle cx="17.5" cy="9.19995" r="7.5" fill="#FCBC10"/>
</svg>
