<svg width="27" height="18" viewBox="0 0 27 18" fill="none" xmlns="http://www.w3.org/2000/svg">
    <path d="M11.1634 2.49618C10.7087 2.92975 10.3006 3.40972 9.94584 3.92824C9.8612 4.05514 9.82997 4.21028 9.85894 4.36005C9.8879 4.50981 9.97472 4.64212 10.1006 4.72831C10.2264 4.81451 10.3812 4.84763 10.5313 4.8205C10.6814 4.79337 10.8148 4.70818 10.9025 4.5834C11.2114 4.13176 11.567 3.71394 11.9635 3.33687C12.0187 3.28433 12.063 3.22144 12.0939 3.15178C12.1248 3.08212 12.1416 3.00705 12.1435 2.93087C12.1454 2.85469 12.1323 2.77889 12.1049 2.70778C12.0775 2.63668 12.0363 2.57167 11.9838 2.51647C11.9312 2.46127 11.8683 2.41696 11.7987 2.38607C11.729 2.35518 11.654 2.3383 11.5778 2.33642C11.5016 2.33454 11.4258 2.34767 11.3547 2.37509C11.2836 2.4025 11.2186 2.44365 11.1634 2.49618Z" fill="black"/>
    <path d="M8.6182 11.1118C8.64881 11.2415 8.72317 11.3567 8.82877 11.438C8.93437 11.5193 9.06476 11.5618 9.19799 11.5582C9.2442 11.5638 9.29092 11.5638 9.33713 11.5582C9.41148 11.5405 9.4816 11.5083 9.54345 11.4634C9.6053 11.4185 9.65767 11.3619 9.69755 11.2967C9.73742 11.2315 9.76401 11.159 9.77579 11.0835C9.78756 11.008 9.7843 10.9309 9.76617 10.8567C9.6381 10.3245 9.5662 9.78043 9.55165 9.23328C9.55165 9.07952 9.49057 8.93205 9.38184 8.82332C9.27311 8.71459 9.12564 8.6535 8.97187 8.6535C8.8181 8.6535 8.67063 8.71459 8.5619 8.82332C8.45317 8.93205 8.39209 9.07952 8.39209 9.23328C8.40106 9.86567 8.47686 10.4953 8.6182 11.1118Z" fill="black"/>
    <path d="M8.98339 8.05631H9.08775C9.22503 8.05855 9.35866 8.01199 9.46483 7.92493C9.571 7.83787 9.64283 7.71595 9.66753 7.58089C9.76735 7.04439 9.9228 6.51975 10.1314 6.01548C10.1607 5.94505 10.1758 5.86954 10.176 5.79325C10.1761 5.71697 10.1612 5.64141 10.1321 5.57088C10.103 5.50035 10.0604 5.43624 10.0065 5.38221C9.95266 5.32817 9.8887 5.28528 9.81827 5.25596C9.74784 5.22665 9.67233 5.2115 9.59605 5.21137C9.51976 5.21124 9.4442 5.22613 9.37367 5.2552C9.30314 5.28428 9.23903 5.32696 9.185 5.3808C9.13097 5.43465 9.08807 5.49862 9.05876 5.56905C8.81886 6.14795 8.64009 6.75032 8.52536 7.36637C8.50933 7.4418 8.50851 7.51968 8.52295 7.59543C8.53739 7.67119 8.56679 7.7433 8.60945 7.80755C8.6521 7.8718 8.70714 7.92689 8.77135 7.96961C8.83556 8.01232 8.90764 8.0418 8.98339 8.05631Z" fill="black"/>
    <path d="M24.4171 5.63859C24.6536 6.13219 24.8382 6.64904 24.9679 7.18081C25.0115 7.32174 25.1071 7.44076 25.2354 7.51362C25.3637 7.58648 25.5149 7.6077 25.6583 7.57297C25.8016 7.53823 25.9264 7.45015 26.0071 7.32666C26.0878 7.20318 26.1184 7.05357 26.0926 6.90831C25.9419 6.30847 25.7302 5.72565 25.4607 5.16897C25.3882 5.04154 25.2701 4.94631 25.1303 4.90243C24.9904 4.85855 24.8391 4.8693 24.7068 4.9325C24.5745 4.9957 24.4711 5.10666 24.4173 5.24305C24.3636 5.37944 24.3635 5.53113 24.4171 5.66758V5.63859Z" fill="black"/>
    <path d="M23.5591 4.24128C23.6056 4.30181 23.6635 4.3526 23.7295 4.39075C23.7956 4.4289 23.8686 4.45366 23.9442 4.46362C24.0198 4.47358 24.0967 4.46855 24.1704 4.4488C24.2441 4.42906 24.3132 4.39499 24.3737 4.34854C24.4342 4.3021 24.485 4.24419 24.5232 4.17812C24.5613 4.11204 24.5861 4.0391 24.596 3.96346C24.606 3.88782 24.601 3.81096 24.5812 3.73726C24.5615 3.66357 24.5274 3.59448 24.481 3.53395C24.0973 3.0353 23.662 2.5786 23.1823 2.17147C23.0654 2.07152 22.9136 2.02209 22.7603 2.03405C22.607 2.04601 22.4647 2.11838 22.3648 2.23524C22.2648 2.3521 22.2154 2.50389 22.2273 2.6572C22.2393 2.8105 22.3117 2.95278 22.4285 3.05273C22.8461 3.40807 23.2251 3.80645 23.5591 4.24128Z" fill="black"/>
    <path d="M16.2481 1.26125H16.3235C16.8663 1.1792 17.4162 1.15394 17.9642 1.18588C18.0404 1.19159 18.1169 1.18225 18.1894 1.15839C18.2619 1.13453 18.3291 1.09661 18.3869 1.04681C18.4448 0.997013 18.4923 0.936302 18.5267 0.868144C18.5611 0.799987 18.5818 0.72572 18.5875 0.649582C18.5932 0.573444 18.5839 0.496927 18.56 0.424399C18.5362 0.351872 18.4982 0.284754 18.4484 0.226878C18.3986 0.169003 18.3379 0.121503 18.2698 0.0870906C18.2016 0.0526782 18.1273 0.0320273 18.0512 0.0263169C17.4249 -0.0215631 16.7954 -0.00407525 16.1727 0.0784972C16.0189 0.0884921 15.8754 0.159162 15.7738 0.274959C15.6721 0.390757 15.6206 0.542197 15.6306 0.695964C15.6406 0.849732 15.7113 0.993231 15.8271 1.09489C15.9429 1.19656 16.0943 1.24805 16.2481 1.23806V1.26125Z" fill="black"/>
    <path d="M12.9606 2.42661C13.0667 2.42763 13.1709 2.39955 13.2621 2.34544C13.7309 2.05873 14.2284 1.82167 14.7464 1.6381C14.82 1.61381 14.888 1.575 14.9463 1.52397C15.0047 1.47294 15.0522 1.41073 15.0861 1.34101C15.12 1.27129 15.1395 1.19549 15.1436 1.11808C15.1477 1.04067 15.1362 0.963224 15.1099 0.890328C15.0835 0.817432 15.0428 0.750563 14.9901 0.693677C14.9375 0.636791 14.8739 0.591042 14.8033 0.559137C14.7326 0.527231 14.6563 0.509817 14.5788 0.507924C14.5013 0.506031 14.4242 0.519698 14.3521 0.548116C13.7611 0.759063 13.1937 1.0311 12.6591 1.35981C12.5523 1.42605 12.4698 1.52524 12.4242 1.64243C12.3786 1.75963 12.3724 1.88847 12.4064 2.00952C12.4404 2.13058 12.5129 2.23729 12.6129 2.31357C12.7128 2.38985 12.8349 2.43156 12.9606 2.43241V2.42661Z" fill="black"/>
    <path d="M10.2239 14.4861C10.3195 14.6008 10.4557 14.6742 10.6041 14.691C10.7525 14.7078 10.9016 14.6667 11.0205 14.5763C11.1393 14.4859 11.2187 14.353 11.242 14.2055C11.2654 14.0581 11.2309 13.9072 11.1458 13.7845C10.8141 13.3495 10.5285 12.8812 10.2935 12.3872C10.2644 12.3131 10.2203 12.2458 10.1641 12.1895C10.1078 12.1331 10.0405 12.089 9.96644 12.0598C9.89236 12.0306 9.81306 12.017 9.73348 12.0198C9.6539 12.0226 9.57576 12.0417 9.50391 12.0761C9.43206 12.1104 9.36806 12.1591 9.31588 12.2193C9.26371 12.2794 9.22448 12.3497 9.20065 12.4257C9.17682 12.5016 9.16889 12.5817 9.17736 12.6609C9.18584 12.7401 9.21053 12.8166 9.2499 12.8859C9.5185 13.4514 9.84491 13.9877 10.2239 14.4861Z" fill="black"/>
    <path d="M22.7415 14.7006C22.3419 15.0718 21.9047 15.4001 21.437 15.6805C21.3301 15.7467 21.2476 15.8459 21.202 15.9631C21.1565 16.0803 21.1502 16.2091 21.1842 16.3302C21.2183 16.4512 21.2907 16.5579 21.3907 16.6342C21.4907 16.7105 21.6127 16.7522 21.7385 16.7531C21.845 16.7523 21.9494 16.7222 22.04 16.6661C22.5759 16.3329 23.0754 15.9442 23.53 15.5065C23.629 15.3985 23.6835 15.2569 23.6824 15.1104C23.6813 14.9638 23.6247 14.8231 23.524 14.7166C23.4234 14.61 23.2861 14.5456 23.1398 14.5362C22.9936 14.5268 22.8492 14.5731 22.7357 14.6658L22.7415 14.7006Z" fill="black"/>
    <path d="M24.6025 12.0162C24.3926 12.5215 24.1303 13.0034 23.8198 13.454C23.7757 13.5168 23.7445 13.5877 23.7279 13.6627C23.7114 13.7376 23.71 13.8151 23.7236 13.8906C23.7372 13.9661 23.7657 14.0381 23.8074 14.1026C23.8491 14.167 23.9032 14.2225 23.9665 14.2658C24.0298 14.3092 24.1011 14.3395 24.1763 14.3551C24.2514 14.3707 24.3289 14.3713 24.4042 14.3567C24.4796 14.3421 24.5513 14.3127 24.6152 14.2703C24.6791 14.2278 24.7339 14.173 24.7765 14.1092C25.1354 13.5877 25.4385 13.03 25.6809 12.4452L25.1475 12.2133L24.6025 12.0162Z" fill="black"/>
    <path d="M26.342 8.76364C26.3397 8.6875 26.3225 8.61256 26.2912 8.54309C26.26 8.47362 26.2153 8.41099 26.1599 8.35876C26.1044 8.30654 26.0392 8.26575 25.968 8.23873C25.8968 8.2117 25.821 8.19897 25.7448 8.20125C25.6687 8.20353 25.5937 8.22079 25.5243 8.25204C25.4548 8.28329 25.3922 8.32791 25.3399 8.38336C25.2877 8.43882 25.2469 8.50401 25.2199 8.57523C25.1929 8.64644 25.1801 8.72229 25.1824 8.79842C25.1824 8.8738 25.1824 8.94337 25.1824 9.01874C25.1828 9.49127 25.1402 9.96284 25.0549 10.4276C25.0406 10.5026 25.0413 10.5797 25.0569 10.6545C25.0725 10.7292 25.1028 10.8001 25.1459 10.8631C25.189 10.9262 25.2441 10.9801 25.3081 11.0217C25.372 11.0634 25.4436 11.092 25.5187 11.106H25.6231C25.7604 11.1082 25.894 11.0616 26.0001 10.9746C26.1063 10.8875 26.1782 10.7656 26.2028 10.6305C26.298 10.0986 26.3446 9.55911 26.342 9.01874C26.342 8.93177 26.342 8.8506 26.342 8.76364Z" fill="black"/>
    <path d="M21.8661 1.899C21.938 1.76361 21.9533 1.60526 21.9088 1.45858C21.8642 1.3119 21.7634 1.18883 21.6284 1.11629C21.3588 0.971065 21.0821 0.839482 20.7993 0.72204C20.5055 0.598572 20.2055 0.490205 19.9006 0.397363C19.753 0.353539 19.594 0.370151 19.4587 0.443543C19.3233 0.516936 19.2226 0.641098 19.1788 0.788715C19.135 0.936332 19.1516 1.09531 19.225 1.23068C19.2984 1.36605 19.4225 1.46672 19.5701 1.51054C19.8372 1.58194 20.1004 1.66709 20.3587 1.76565C20.608 1.87001 20.8515 1.98596 21.0834 2.10772C21.1671 2.15292 21.2607 2.17682 21.3559 2.17729C21.4579 2.17991 21.5588 2.15555 21.6484 2.10669C21.738 2.05782 21.8131 1.98618 21.8661 1.899Z" fill="black"/>
    <path d="M13.6159 15.8949C13.1344 15.6338 12.6816 15.3228 12.265 14.9672C12.1482 14.8673 11.9964 14.8179 11.8431 14.8298C11.6898 14.8418 11.5475 14.9142 11.4475 15.031C11.3476 15.1479 11.2981 15.2997 11.3101 15.453C11.3221 15.6063 11.3944 15.7486 11.5113 15.8485C11.9884 16.2558 12.5073 16.6114 13.0593 16.9095C13.1946 16.9864 13.3549 17.0064 13.505 16.9651C13.655 16.9237 13.7825 16.8245 13.8594 16.6892C13.9363 16.5539 13.9563 16.3936 13.915 16.2435C13.8736 16.0935 13.7744 15.966 13.6391 15.8891L13.6159 15.8949Z" fill="black"/>
    <path d="M19.9644 16.3935C19.4496 16.5759 18.9172 16.7042 18.3758 16.7762C18.2997 16.7811 18.2253 16.801 18.1568 16.8347C18.0884 16.8685 18.0272 16.9153 17.9769 16.9727C17.9266 17.03 17.888 17.0967 17.8635 17.1689C17.8389 17.2412 17.8288 17.3175 17.8337 17.3937C17.8387 17.4698 17.8586 17.5442 17.8923 17.6127C17.926 17.6811 17.9729 17.7422 18.0302 17.7926C18.0875 17.8429 18.1542 17.8815 18.2265 17.906C18.2987 17.9306 18.3751 17.9407 18.4512 17.9358H18.5266C19.1491 17.853 19.7612 17.7053 20.3529 17.4951C20.499 17.4436 20.6186 17.3362 20.6855 17.1965C20.7523 17.0567 20.761 16.8962 20.7095 16.7501C20.6579 16.604 20.5505 16.4844 20.4108 16.4175C20.2711 16.3506 20.1105 16.342 19.9644 16.3935Z" fill="black"/>
    <path d="M16.7349 16.84C16.1905 16.7959 15.6522 16.6949 15.1289 16.5385C14.9813 16.4947 14.8223 16.5113 14.6869 16.5847C14.5516 16.658 14.4509 16.7822 14.4071 16.9298C14.3632 17.0774 14.3799 17.2364 14.4532 17.3718C14.5266 17.5072 14.6508 17.6078 14.7984 17.6517C15.401 17.8321 16.0209 17.9487 16.6479 17.9995H16.6943C16.8481 18.0057 16.998 17.9505 17.1111 17.8461C17.2241 17.7417 17.2911 17.5967 17.2973 17.4429C17.3034 17.2892 17.2482 17.1393 17.1439 17.0262C17.0395 16.9131 16.8945 16.8461 16.7407 16.84H16.7349Z" fill="black"/>
    <path d="M11.1691 16.724C10.1009 16.91 9.00569 16.8719 7.95294 16.6123C6.9002 16.3528 5.91287 15.8773 5.05356 15.216C4.19424 14.5548 3.48169 13.7222 2.96107 12.7711C2.44045 11.82 2.12313 10.7711 2.02921 9.69086C1.9353 8.61065 2.06685 7.52271 2.41551 6.49602C2.76418 5.46933 3.32236 4.52628 4.05467 3.72666C4.78697 2.92704 5.67743 2.2883 6.66958 1.85092C7.66173 1.41354 8.73394 1.18708 9.81822 1.18588C10.271 1.18565 10.723 1.22445 11.1691 1.30184C11.3229 1.32798 11.4807 1.29197 11.6079 1.20172C11.7352 1.11148 11.8213 0.97439 11.8475 0.820623C11.8736 0.666855 11.8376 0.509001 11.7473 0.381787C11.6571 0.254573 11.52 0.168419 11.3662 0.142279C10.1461 -0.0550277 8.89834 0.00148566 7.70102 0.308286C6.5037 0.615087 5.38254 1.16558 4.40763 1.92535C3.43272 2.68511 2.62501 3.63782 2.03501 4.72392C1.44501 5.81001 1.08539 7.00614 0.978647 8.23752C0.8719 9.46891 1.02032 10.7091 1.41462 11.8805C1.80892 13.0519 2.44063 14.1294 3.27026 15.0456C4.09988 15.9618 5.10959 16.697 6.23625 17.2053C7.36292 17.7136 8.58231 17.9839 9.81822 17.9995C10.3371 17.9995 10.855 17.9549 11.3662 17.8662C11.4424 17.8532 11.5152 17.8254 11.5806 17.7843C11.646 17.7432 11.7026 17.6897 11.7473 17.6267C11.792 17.5637 11.8239 17.4925 11.841 17.4172C11.8582 17.3419 11.8604 17.264 11.8475 17.1878C11.8345 17.1117 11.8067 17.0389 11.7656 16.9735C11.7245 16.9081 11.6709 16.8514 11.6079 16.8067C11.545 16.7621 11.4738 16.7302 11.3985 16.713C11.3232 16.6959 11.2452 16.6937 11.1691 16.7066V16.724Z" fill="black"/>
    <path d="M15.0885 16.295C16.1271 15.5431 16.9928 14.5777 17.6274 13.4635C18.262 12.3494 18.6509 11.1124 18.7678 9.83552C18.8848 8.55868 18.7272 7.27158 18.3056 6.06069C17.884 4.8498 17.2081 3.74314 16.3235 2.81506C16.2709 2.75986 16.208 2.71555 16.1384 2.68465C16.0687 2.65376 15.9936 2.63689 15.9175 2.635C15.7636 2.6312 15.6145 2.68867 15.5031 2.79477C15.3916 2.90087 15.3268 3.04691 15.323 3.20076C15.3192 3.35461 15.3767 3.50368 15.4828 3.61516C16.2532 4.42368 16.8416 5.38769 17.2086 6.44245C17.5756 7.49722 17.7126 8.6183 17.6104 9.7304C17.5083 10.8425 17.1693 11.9199 16.6164 12.8901C16.0634 13.8604 15.3092 14.7011 14.4044 15.3557C14.3392 15.3988 14.2834 15.4547 14.2404 15.5199C14.1974 15.5851 14.168 15.6584 14.1539 15.7352C14.1399 15.8121 14.1416 15.891 14.1588 15.9672C14.1761 16.0434 14.2085 16.1154 14.2543 16.1787C14.3 16.242 14.3581 16.2955 14.425 16.3358C14.492 16.3761 14.5663 16.4025 14.6437 16.4134C14.7211 16.4243 14.7999 16.4194 14.8753 16.399C14.9508 16.3787 15.0213 16.3433 15.0827 16.295H15.0885Z" fill="black"/>
</svg>
