<svg width="24" height="24" viewBox="0 0 24 24" fill="none" xmlns="http://www.w3.org/2000/svg">
<path d="M20.0402 4.60003C20.0402 4.30417 20.0395 4.14001 20.0298 4.02142C20.0282 4.00224 20.0264 3.98704 20.025 3.97528C20.0132 3.97379 19.998 3.97204 19.9789 3.97047C19.8603 3.96078 19.6961 3.96004 19.4002 3.96004H4.60021C4.30435 3.96004 4.14019 3.96078 4.02159 3.97047C4.00242 3.97204 3.98721 3.97379 3.97545 3.97528C3.97396 3.98704 3.97221 4.00224 3.97065 4.02142C3.96096 4.14001 3.96022 4.30418 3.96022 4.60003L3.96027 6.42397C3.96044 6.50005 3.96101 6.54653 3.96268 6.58299C3.96302 6.59054 3.96342 6.59645 3.96373 6.60092C3.96667 6.6043 3.97055 6.60878 3.97566 6.61437C4.00846 6.65031 4.05527 6.69747 4.14766 6.78986L10.2103 12.8525L10.265 12.907C10.3919 13.0334 10.5421 13.186 10.6586 13.3696L10.6714 13.3901L10.6913 13.4233C10.7886 13.5894 10.861 13.7691 10.9061 13.9568L10.9115 13.9803C10.966 14.224 10.9602 14.4701 10.9602 14.6627V18.6824L13.0402 16.6024V14.6627C13.0402 14.4639 13.0341 14.2081 13.0943 13.957L13.0943 13.9568L13.1037 13.9194C13.1491 13.7452 13.2183 13.5782 13.3094 13.4229L13.3293 13.3898C13.4643 13.1696 13.6496 12.993 13.79 12.8526L19.9139 6.7286C19.9676 6.67466 20.0001 6.6414 20.0247 6.61443C20.0299 6.6088 20.0337 6.60428 20.0367 6.60089C20.037 6.59643 20.0374 6.59055 20.0378 6.58305C20.04 6.53441 20.0402 6.46795 20.0402 6.33731V4.60003ZM9.03909 14.4049V14.4048C9.03907 14.4048 9.03903 14.4047 9.03901 14.4046L9.03909 14.4049ZM21.9602 6.33731C21.9602 6.53625 21.9664 6.79203 21.9061 7.04316L21.9061 7.04339C21.8581 7.24337 21.7788 7.43475 21.6711 7.6104L21.671 7.61038C21.536 7.83052 21.3508 8.0071 21.2105 8.14739L21.2105 8.1475L15.1476 14.2103C15.0553 14.3026 15.0085 14.3498 14.9757 14.3857C14.9706 14.3913 14.9667 14.3958 14.9637 14.3992C14.9634 14.4036 14.963 14.4095 14.9627 14.4171C14.9604 14.4657 14.9602 14.5322 14.9602 14.6627V17.0001C14.9602 17.2547 14.8591 17.4988 14.679 17.6789L10.679 21.6789C10.4045 21.9534 9.99158 22.0356 9.63285 21.887C9.27413 21.7384 9.04021 21.3883 9.04021 21V14.6627C9.04021 14.5321 9.04 14.4657 9.03777 14.4171C9.03743 14.4095 9.037 14.4036 9.03669 14.3991C9.03375 14.3958 9.02988 14.3913 9.0248 14.3857C9.00022 14.3588 8.96774 14.3255 8.91408 14.2717L8.85285 14.2104L8.85276 14.2103L2.79001 8.1475C2.64938 8.00687 2.46405 7.83025 2.32902 7.60991L2.32905 7.60988C2.22158 7.4345 2.14239 7.24334 2.09439 7.04339L2.09436 7.04336C2.04158 6.82351 2.03971 6.60011 2.04007 6.41445L2.04022 6.33731V4.60003C2.04022 4.33585 2.03947 4.07997 2.05703 3.86506C2.07551 3.63895 2.11891 3.37507 2.25385 3.11023L2.27181 3.07583C2.46059 2.7228 2.75312 2.43572 3.11037 2.25368L3.13522 2.24128C3.39169 2.11604 3.64619 2.07476 3.86524 2.05686C4.08014 2.0393 4.33603 2.04004 4.60021 2.04004L19.5963 2.04019C19.7898 2.0408 19.974 2.04369 20.1352 2.05686C20.3613 2.07533 20.6252 2.11872 20.89 2.25365L20.9244 2.27161C21.2663 2.45438 21.546 2.73431 21.7286 3.07578L21.7465 3.11011L21.7466 3.1102L21.7589 3.13501C21.8842 3.3915 21.9255 3.646 21.9434 3.86506C21.961 4.07998 21.9602 4.33585 21.9602 4.60003V6.33731Z" fill="black"/>
</svg>
