<svg width="133" height="32" viewBox="0 0 133 32" fill="none" xmlns="http://www.w3.org/2000/svg">
    <g filter="url(#filter0_d_57_144)">
        <path d="M20.424 23L19.464 19.768H12.008L11.048 23H4.84L12.232 0.599998H19.208L26.6 23H20.424ZM13.48 14.84H17.992L15.72 7.224L13.48 14.84ZM33.3168 9.976C33.6154 8.93067 34.2128 8.12 35.1088 7.544C36.0048 6.968 37.0074 6.68 38.1168 6.68V12.568C36.9008 12.376 35.7914 12.6 34.7888 13.24C33.8074 13.88 33.3168 14.9253 33.3168 16.376V23H28.0048V7H33.3168V9.976ZM48.1618 23.416C45.7511 23.416 43.7351 22.6053 42.1138 20.984C40.5138 19.3627 39.7138 17.368 39.7138 15C39.7138 12.6107 40.5138 10.616 42.1138 9.016C43.7351 7.39467 45.7511 6.584 48.1618 6.584C49.7191 6.584 51.1378 6.95733 52.4178 7.704C53.6978 8.45067 54.6578 9.45333 55.2978 10.712L52.3218 12.44C51.9591 11.672 51.4044 11.0747 50.6578 10.648C49.9324 10.2 49.0898 9.976 48.1298 9.976C46.7218 9.976 45.5378 10.456 44.5778 11.416C43.6391 12.376 43.1698 13.5707 43.1698 15C43.1698 16.4293 43.6391 17.624 44.5778 18.584C45.5378 19.544 46.7218 20.024 48.1298 20.024C49.0684 20.024 49.9111 19.8 50.6578 19.352C51.4258 18.904 52.0018 18.3067 52.3858 17.56L55.3618 19.256C54.6791 20.536 53.6978 21.5493 52.4178 22.296C51.1378 23.0427 49.7191 23.416 48.1618 23.416ZM66.7878 10.328H62.8198V18.008C62.8198 18.6693 62.9691 19.1493 63.2678 19.448C63.5664 19.7253 64.0038 19.8853 64.5798 19.928C65.1771 19.9493 65.9131 19.9387 66.7878 19.896V23C64.1424 23.32 62.2438 23.096 61.0918 22.328C59.9398 21.5387 59.3638 20.0987 59.3638 18.008V10.328H56.4198V7H59.3638V3.544L62.8198 2.52V7H66.7878V10.328ZM72.4465 3.16C72.1478 3.45867 71.7852 3.608 71.3585 3.608C70.9318 3.608 70.5692 3.45867 70.2705 3.16C69.9718 2.86133 69.8225 2.49867 69.8225 2.072C69.8225 1.64533 69.9718 1.28267 70.2705 0.983999C70.5692 0.685333 70.9318 0.535999 71.3585 0.535999C71.7852 0.535999 72.1478 0.685333 72.4465 0.983999C72.7452 1.28267 72.8945 1.64533 72.8945 2.072C72.8945 2.49867 72.7452 2.86133 72.4465 3.16ZM70.3025 23V7H72.4145V23H70.3025ZM84.3523 23.384C81.9416 23.384 79.9363 22.584 78.3363 20.984C76.7363 19.3627 75.9363 17.368 75.9363 15C75.9363 12.632 76.7363 10.648 78.3363 9.048C79.9363 7.42667 81.9416 6.616 84.3523 6.616C85.9309 6.616 87.3496 7 88.6083 7.768C89.8669 8.51467 90.7843 9.528 91.3603 10.808L89.6323 11.8C89.2056 10.84 88.5123 10.0827 87.5523 9.528C86.6136 8.952 85.5469 8.664 84.3523 8.664C82.5816 8.664 81.0883 9.28267 79.8723 10.52C78.6563 11.736 78.0483 13.2293 78.0483 15C78.0483 16.7707 78.6563 18.2747 79.8723 19.512C81.0883 20.728 82.5816 21.336 84.3523 21.336C85.5469 21.336 86.6136 21.0587 87.5523 20.504C88.4909 19.928 89.2269 19.16 89.7603 18.2L91.5203 19.224C90.8589 20.504 89.8883 21.5173 88.6083 22.264C87.3283 23.0107 85.9096 23.384 84.3523 23.384ZM110.553 23L108.249 17.08H96.5045L94.2005 23H92.9525L101.72 0.599998H103.001L111.801 23H110.553ZM96.9205 15.992H107.833L102.361 1.976L96.9205 15.992ZM116.374 2.36C116.182 2.552 115.947 2.648 115.67 2.648C115.392 2.648 115.158 2.552 114.966 2.36C114.774 2.14667 114.678 1.912 114.678 1.656C114.678 1.37867 114.774 1.144 114.966 0.952C115.158 0.738665 115.392 0.631998 115.67 0.631998C115.947 0.631998 116.182 0.738665 116.374 0.952C116.566 1.144 116.661 1.37867 116.661 1.656C116.661 1.912 116.566 2.14667 116.374 2.36ZM115.094 23V7H116.246V23H115.094ZM122.714 10.616C123.184 9.31467 123.93 8.35467 124.954 7.736C125.978 7.096 127.109 6.776 128.346 6.776V7.864C126.768 7.864 125.434 8.408 124.346 9.496C123.258 10.5627 122.714 12.0987 122.714 14.104V23H121.562V7H122.714V10.616Z" fill="white"/>
    </g>
    <defs>
        <filter id="filter0_d_57_144" x="0.839966" y="0.536011" width="131.506" height="30.944" filterUnits="userSpaceOnUse" color-interpolation-filters="sRGB">
            <feFlood flood-opacity="0" result="BackgroundImageFix"/>
            <feColorMatrix in="SourceAlpha" type="matrix" values="0 0 0 0 0 0 0 0 0 0 0 0 0 0 0 0 0 0 127 0" result="hardAlpha"/>
            <feOffset dy="4"/>
            <feGaussianBlur stdDeviation="2"/>
            <feComposite in2="hardAlpha" operator="out"/>
            <feColorMatrix type="matrix" values="0 0 0 0 0 0 0 0 0 0 0 0 0 0 0 0 0 0 0.25 0"/>
            <feBlend mode="normal" in2="BackgroundImageFix" result="effect1_dropShadow_57_144"/>
            <feBlend mode="normal" in="SourceGraphic" in2="effect1_dropShadow_57_144" result="shape"/>
        </filter>
    </defs>
</svg>
