<svg width="18" height="18" viewBox="0 0 18 18" fill="none" xmlns="http://www.w3.org/2000/svg">
    <path d="M17.7972 16.8185L14.2516 13.2729C15.4368 11.8671 16.1541 10.0551 16.1541 8.07692C16.1541 3.62308 12.5309 0 8.07703 0C3.62312 0 0 3.62308 0 8.07692C0 12.5308 3.62312 16.1538 8.07703 16.1538C10.0552 16.1538 11.8672 15.4366 13.2731 14.2514L16.8187 17.7969C16.9534 17.9317 17.1307 18 17.3079 18C17.4851 18 17.6624 17.9326 17.7972 17.7969C18.0676 17.5265 18.0676 17.0889 17.7972 16.8185ZM8.07703 14.7692C4.38652 14.7692 1.38463 11.7674 1.38463 8.07692C1.38463 4.38646 4.38652 1.38462 8.07703 1.38462C11.7675 1.38462 14.7694 4.38646 14.7694 8.07692C14.7694 11.7674 11.7675 14.7692 8.07703 14.7692Z" fill="white"/>
</svg>
