<svg width="20" height="18" viewBox="0 0 22 20" fill="none" xmlns="http://www.w3.org/2000/svg">
    <path d="M1.25209 8.87357L4.70766 12.1673L4.70682 12.1685C4.85009 12.3053 4.99153 12.5363 5.08565 12.812C5.17983 13.0879 5.20846 13.3553 5.17839 13.5482C5.17838 13.5482 5.17838 13.5483 5.17837 13.5483L4.44456 18.2489L4.44455 18.249C4.38592 18.6249 4.44407 19.0791 4.81651 19.3405C5.18582 19.5996 5.6322 19.5053 5.96835 19.3287L5.96953 19.328L10.2043 17.088L10.2045 17.0878C10.3808 16.9945 10.6475 16.9324 10.9429 16.9292C11.2382 16.926 11.506 16.9823 11.6837 17.0714L11.6839 17.0715L15.9687 19.2163C16.3087 19.3867 16.7572 19.4712 17.1209 19.2037C17.4873 18.9343 17.5361 18.4791 17.4689 18.1039L17.4689 18.1036L16.6281 13.4227C16.6281 13.4226 16.6281 13.4226 16.6281 13.4225C16.5937 13.23 16.6162 12.9617 16.7039 12.684C16.7916 12.4063 16.9275 12.1729 17.0674 12.0337L17.0678 12.0333L20.4504 8.65848C20.7198 8.39039 20.9439 7.98866 20.7963 7.55673C20.6497 7.12753 20.2294 6.94393 19.8539 6.89199L19.8534 6.89193L15.0993 6.239C14.9015 6.21164 14.6489 6.10647 14.408 5.93729C14.167 5.76797 13.984 5.56706 13.8933 5.3924L11.6985 1.16324L11.6984 1.16307C11.5225 0.824543 11.2078 0.494536 10.7555 0.500064C10.3038 0.505586 9.99715 0.842623 9.82958 1.1841L9.82949 1.18428L7.73294 5.461C7.6466 5.63695 7.46875 5.84183 7.23197 6.01651C6.99539 6.19104 6.74542 6.30189 6.54774 6.33355L6.54752 6.33358L1.80826 7.09469L1.80818 7.0947C1.43425 7.15481 1.01771 7.34742 0.881284 7.78062C0.744381 8.21533 0.977585 8.61141 1.25174 8.87323L1.25209 8.87357Z" stroke="black"/>
</svg>
