<svg width="13" height="13" viewBox="0 0 13 14" fill="none" xmlns="http://www.w3.org/2000/svg">
<g clip-path="url(#clip0_0_1)">
<path d="M11.9222 7.90771H1.92224C1.65702 7.90771 1.40267 7.80236 1.21513 7.61482C1.0276 7.42729 0.922241 7.17293 0.922241 6.90771C0.922241 6.6425 1.0276 6.38814 1.21513 6.20061C1.40267 6.01307 1.65702 5.90771 1.92224 5.90771H11.9222C12.1875 5.90771 12.4418 6.01307 12.6293 6.20061C12.8169 6.38814 12.9222 6.6425 12.9222 6.90771C12.9222 7.17293 12.8169 7.42729 12.6293 7.61482C12.4418 7.80236 12.1875 7.90771 11.9222 7.90771Z" fill="#FCBC10"/>
<path d="M6.92227 12.9079C6.79094 12.908 6.66087 12.8822 6.53954 12.8319C6.41821 12.7816 6.30801 12.7079 6.21527 12.6149L1.21527 7.61488C1.0278 7.42735 0.922485 7.17304 0.922485 6.90788C0.922485 6.64271 1.0278 6.38841 1.21527 6.20088L6.21527 1.20088C6.40387 1.01872 6.65648 0.917925 6.91867 0.920204C7.18087 0.922482 7.43168 1.02765 7.61709 1.21306C7.8025 1.39847 7.90767 1.64928 7.90995 1.91148C7.91222 2.17367 7.81143 2.42628 7.62927 2.61488L3.33627 6.90788L7.62927 11.2009C7.76908 11.3407 7.86429 11.5189 7.90285 11.7128C7.94142 11.9068 7.92162 12.1078 7.84595 12.2905C7.77028 12.4732 7.64214 12.6294 7.47773 12.7393C7.31332 12.8492 7.12002 12.9078 6.92227 12.9079Z" fill="#FCBC10"/>
</g>
<defs>
</defs>
</svg>
