<svg width="29" height="29" viewBox="0 0 29 29" fill="none" xmlns="http://www.w3.org/2000/svg">
<path d="M19.7223 10.9307C20.3718 10.2813 21.0165 8.76599 18.3106 10.606C15.7828 12.3457 13.238 14.0603 10.6763 15.7496C10.2863 15.926 9.86456 16.0217 9.43656 16.031C9.00856 16.0403 8.5831 15.963 8.18573 15.8037C6.56218 15.3167 4.66686 14.6672 4.66686 14.6672C4.66686 14.6672 3.37273 13.8543 5.58805 12.9884C5.58805 12.9884 14.954 9.14482 18.2023 7.79068C19.447 7.2495 23.6694 5.51772 23.6694 5.51772C23.6694 5.51772 25.6189 4.75888 25.4565 6.60008C25.4024 7.35774 24.9695 10.0119 24.5365 12.8802C23.8859 16.9402 23.1824 21.3803 23.1824 21.3803C23.1824 21.3803 23.0741 22.625 22.1541 22.8415C21.1693 22.8248 20.2177 22.4822 19.4482 21.8673C19.2317 21.705 15.3882 19.2685 13.9799 18.0779C13.8367 17.9808 13.7203 17.8491 13.6416 17.695C13.5629 17.5409 13.5245 17.3694 13.5299 17.1965C13.5353 17.0236 13.5843 16.8548 13.6725 16.7059C13.7606 16.557 13.885 16.4328 14.034 16.3449C15.9655 14.5777 17.862 12.7727 19.7223 10.9307Z" fill="black"/>
</svg>
