<svg width="29" height="29" viewBox="0 0 29 29" fill="none" xmlns="http://www.w3.org/2000/svg">
<g clip-path="url(#clip0_34_244)">
<path d="M13.7847 21.2078H15.4682C15.4682 21.2078 15.9771 21.1515 16.236 20.8715C16.4754 20.6144 16.4666 20.1319 16.4666 20.1319C16.4666 20.1319 16.4332 17.8726 17.4827 17.5398C18.5164 17.2122 19.8441 19.7234 21.2511 20.6901C22.3147 21.4209 23.123 21.2607 23.123 21.2607L26.8862 21.2078C26.8862 21.2078 28.8549 21.0863 27.9216 19.5385C27.8459 19.4117 27.3775 18.3938 25.1235 16.3018C22.7638 14.1112 23.0808 14.4669 25.9229 10.6791C27.6539 8.3723 28.346 6.96354 28.1294 6.3613C27.9234 5.78723 26.6502 5.93867 26.6502 5.93867L22.4169 5.96332C22.4169 5.96332 22.1034 5.92106 21.8692 6.06017C21.6421 6.19753 21.4959 6.5145 21.4959 6.5145C21.4959 6.5145 20.825 8.3001 19.9304 9.81803C18.0444 13.0212 17.289 13.1902 16.9808 12.9913C16.2641 12.5281 16.4437 11.1282 16.4437 10.135C16.4437 7.03046 16.9139 5.73616 15.5263 5.40158C15.0649 5.29064 14.7268 5.21668 13.5488 5.20435C12.0379 5.18851 10.7577 5.20964 10.0339 5.56359C9.5514 5.79955 9.17984 6.32608 9.40701 6.35601C9.687 6.39299 10.3209 6.52683 10.6573 6.98467C11.0922 7.57459 11.0764 8.90234 11.0764 8.90234C11.0764 8.90234 11.3264 12.5563 10.4935 13.0106C9.9212 13.3223 9.13758 12.6866 7.45588 9.77929C6.59477 8.29129 5.94322 6.64481 5.94322 6.64481C5.94322 6.64481 5.8182 6.3384 5.59455 6.17464C5.32337 5.97565 4.943 5.91225 4.943 5.91225L0.91748 5.93691C0.91748 5.93691 0.313475 5.95452 0.0915962 6.2169C-0.10563 6.4511 0.0757476 6.9336 0.0757476 6.9336C0.0757476 6.9336 3.22784 14.3067 6.79552 18.024C10.0691 21.4315 13.7847 21.2078 13.7847 21.2078Z" fill="black"/>
</g>
<defs>
<clipPath id="clip0_34_244">
<rect width="28.1751" height="28.1751" fill="white" transform="translate(0 0.0302734)"/>
</clipPath>
</defs>
</svg>
