<svg width="29" height="29" viewBox="0 0 29 29" fill="none" xmlns="http://www.w3.org/2000/svg">
<path d="M27.4111 11.4241C27.4693 9.74012 27.101 8.06876 26.3405 6.56519C25.8245 5.94824 25.1084 5.5319 24.317 5.38871C21.0434 5.09168 17.7563 4.96993 14.4698 5.024C11.1952 4.96748 7.91994 5.08529 4.65789 5.37694C4.01296 5.49426 3.41613 5.79676 2.94022 6.24754C1.88138 7.22403 1.76374 8.89464 1.64609 10.3064C1.47539 12.8448 1.47539 15.3917 1.64609 17.93C1.68012 18.7246 1.79843 19.5134 1.99903 20.283C2.14089 20.8772 2.42789 21.427 2.83434 21.883C3.31348 22.3577 3.92421 22.6774 4.5873 22.8007C7.1237 23.1138 9.67938 23.2435 12.2345 23.1889C16.3522 23.2478 19.964 23.1889 24.2346 22.8595C24.914 22.7438 25.5419 22.4237 26.0346 21.9419C26.364 21.6123 26.61 21.209 26.7523 20.7654C27.173 19.4743 27.3797 18.1231 27.3641 16.7653C27.4111 16.1065 27.4111 12.13 27.4111 11.4241ZM11.8109 17.4712V10.1888L18.7757 13.8476C16.8227 14.93 14.2462 16.1535 11.8109 17.4712Z" fill="black"/>
</svg>
